<svg width="101" height="101" viewBox="0 0 101 101" fill="none" xmlns="http://www.w3.org/2000/svg">
<path d="M31.4138 37.25C31.9912 36.25 33.4346 36.25 34.0119 37.25L45.0216 56.3193C45.5989 57.3193 44.8772 58.5693 43.7225 58.5693H21.7032C20.5485 58.5693 19.8268 57.3193 20.4042 56.3193L31.4138 37.25Z" fill="#9DC7A5"/>
<path d="M31.4138 25.25C31.9912 24.25 33.4346 24.25 34.0119 25.25L45.0216 44.3193C45.5989 45.3193 44.8772 46.5693 43.7225 46.5693H21.7032C20.5485 46.5693 19.8268 45.3193 20.4042 44.3193L31.4138 25.25Z" fill="#BAEEC4"/>
<path d="M71.586 68.1758C71.0087 69.1758 69.5653 69.1758 68.988 68.1758L57.9783 49.1065C57.4009 48.1065 58.1226 46.8565 59.2773 46.8565L81.2967 46.8565C82.4514 46.8565 83.1731 48.1065 82.5957 49.1065L71.586 68.1758Z" fill="#D7B7BC"/>
<path d="M71.5862 80.1857C71.0088 81.1857 69.5654 81.1857 68.9881 80.1857L57.9784 61.1164C57.4011 60.1164 58.1228 58.8664 59.2775 58.8664L81.2968 58.8664C82.4515 58.8664 83.1732 60.1164 82.5958 61.1164L71.5862 80.1857Z" fill="#FCDBE0"/>
</svg>
