<svg width="69" height="60" viewBox="0 0 69 60" fill="none" xmlns="http://www.w3.org/2000/svg">
<path d="M14.4138 14.25C14.9912 13.25 16.4346 13.25 17.0119 14.25L28.0216 33.3193C28.5989 34.3193 27.8772 35.5693 26.7225 35.5693H4.7032C3.5485 35.5693 2.82681 34.3193 3.40416 33.3193L14.4138 14.25Z" fill="#9DC7A5"/>
<path d="M14.4138 2.25C14.9912 1.25 16.4346 1.25 17.0119 2.25L28.0216 21.3193C28.5989 22.3193 27.8772 23.5693 26.7225 23.5693L4.7032 23.5693C3.5485 23.5693 2.82681 22.3193 3.40416 21.3193L14.4138 2.25Z" fill="#BAEEC4"/>
<path d="M54.586 45.1758C54.0087 46.1758 52.5653 46.1758 51.988 45.1758L40.9783 26.1065C40.4009 25.1065 41.1226 23.8565 42.2773 23.8565L64.2967 23.8565C65.4514 23.8565 66.1731 25.1065 65.5957 26.1065L54.586 45.1758Z" fill="#D7B7BC"/>
<path d="M54.5862 57.1857C54.0088 58.1857 52.5654 58.1857 51.9881 57.1857L40.9784 38.1164C40.4011 37.1164 41.1228 35.8664 42.2775 35.8664L64.2968 35.8664C65.4515 35.8664 66.1732 37.1164 65.5958 38.1164L54.5862 57.1857Z" fill="#FCDBE0"/>
</svg>
