<svg width="512" height="512" viewBox="0 0 512 512" fill="none" xmlns="http://www.w3.org/2000/svg">
<g clip-path="url(#clip0_41_9)">
<rect width="512" height="512" fill="white"/>
<rect x="-1" y="-1" width="513" height="513" fill="#222222"/>
<path d="M166.985 194.274C171.784 187.846 181.417 187.846 186.216 194.274L261.265 294.798C267.173 302.712 261.525 313.977 251.649 313.977H101.552C91.6755 313.977 86.0277 302.712 91.9361 294.798L166.985 194.274Z" fill="#404040"/>
<path d="M331.035 222.088C335.737 217.31 343.44 217.31 348.141 222.088L418.478 293.56C425.945 301.146 420.57 313.977 409.925 313.977H269.252C258.607 313.977 253.232 301.146 260.699 293.56L331.035 222.088Z" fill="#363636"/>
<path d="M248.5 160.534C253.119 152.534 264.666 152.534 269.285 160.534L347.483 295.977C352.102 303.977 346.328 313.977 337.091 313.977H180.694C171.457 313.977 165.683 303.977 170.302 295.977L248.5 160.534Z" fill="#BCE8FF"/>
</g>
<defs>
<clipPath id="clip0_41_9">
<rect width="512" height="512" fill="white"/>
</clipPath>
</defs>
</svg>
