<svg width="101" height="101" viewBox="0 0 101 101" fill="none" xmlns="http://www.w3.org/2000/svg">
<rect width="101" height="101" rx="20" fill="#222222"/>
<path d="M31.2467 37.72C32.4465 36.1129 34.8548 36.1129 36.0546 37.72L51.7217 58.7053C53.1988 60.6838 51.7868 63.5 49.3177 63.5H17.9836C15.5145 63.5 14.1025 60.6838 15.5796 58.7053L31.2467 37.72Z" fill="#404040"/>
<path d="M67.163 43.6727C68.3384 42.4784 70.2642 42.4784 71.4395 43.6727L85.9287 58.3957C87.7953 60.2924 86.4516 63.5 83.7905 63.5H54.8121C52.1509 63.5 50.8073 60.2924 52.6739 58.3957L67.163 43.6727Z" fill="#363636"/>
<path d="M49.0526 30.5C50.2073 28.5 53.094 28.5 54.2487 30.5L70.7032 59C71.8579 61 70.4145 63.5 68.1051 63.5H35.1962C32.8868 63.5 31.4434 61 32.5981 59L49.0526 30.5Z" fill="#BCE8FF"/>
</svg>
