<svg width="79" height="50" viewBox="0 0 79 50" fill="none" xmlns="http://www.w3.org/2000/svg">
<path d="M19.2467 11.72C20.4465 10.1129 22.8548 10.1129 24.0546 11.72L39.7217 32.7053C41.1988 34.6838 39.7868 37.5 37.3177 37.5H5.98356C3.51446 37.5 2.1025 34.6838 3.57961 32.7053L19.2467 11.72Z" fill="#404040"/>
<path d="M55.163 17.6727C56.3384 16.4784 58.2642 16.4784 59.4395 17.6727L73.9287 32.3957C75.7953 34.2924 74.4516 37.5 71.7905 37.5H42.8121C40.1509 37.5 38.8073 34.2924 40.6739 32.3957L55.163 17.6727Z" fill="#363636"/>
<path d="M37.0526 4.5C38.2073 2.5 41.094 2.5 42.2487 4.5L58.7032 33C59.8579 35 58.4145 37.5 56.1051 37.5H23.1962C20.8868 37.5 19.4434 35 20.5981 33L37.0526 4.5Z" fill="#BCE8FF"/>
</svg>
